<svg xmlns:xlink="http://www.w3.org/1999/xlink" xmlns="http://www.w3.org/2000/svg" version="1.1" viewBox="0 0 296 403" height="403px" width="296px">
    <title>1</title>
    <defs>
        <linearGradient id="linearGradient-1" y2="100%" x2="50%" y1="0%" x1="50%">
            <stop offset="0%" stop-color="#C3997E"></stop>
            <stop offset="100%" stop-color="#98461C"></stop>
        </linearGradient>
        <linearGradient id="linearGradient-2" y2="100%" x2="50%" y1="0%" x1="50%">
            <stop offset="0%" stop-color="#84614A"></stop>
            <stop offset="100%" stop-color="#472B1C"></stop>
        </linearGradient>
        <linearGradient id="linearGradient-3" y2="100%" x2="50%" y1="0%" x1="50%">
            <stop offset="0%" stop-color="#7AA943"></stop>
            <stop offset="100%" stop-color="#628E22"></stop>
        </linearGradient>
        <linearGradient id="linearGradient-4" y2="100%" x2="50%" y1="0%" x1="50%">
            <stop offset="0%" stop-color="#FFE8DC"></stop>
            <stop offset="100%" stop-color="#75A337"></stop>
        </linearGradient>
        <linearGradient id="linearGradient-5" y2="100%" x2="31.0582174%" y1="-7.10542736e-13%" x1="50%">
            <stop offset="0%" stop-color="#FFE8DC"></stop>
            <stop offset="100%" stop-color="#75A337"></stop>
        </linearGradient>
        <linearGradient id="linearGradient-6" y2="100%" x2="50%" y1="0.849541084%" x1="50%">
            <stop offset="0%" stop-color="#7DA83D"></stop>
            <stop offset="100%" stop-color="#3E7300"></stop>
        </linearGradient>
        <linearGradient id="linearGradient-7" y2="100%" x2="50%" y1="0%" x1="50%">
            <stop offset="0%" stop-color="#FF7269"></stop>
            <stop offset="100%" stop-color="#FFD8C4"></stop>
        </linearGradient>
        <linearGradient id="linearGradient-8" y2="100%" x2="50%" y1="0%" x1="50%">
            <stop offset="0%" stop-color="#FF7269"></stop>
            <stop offset="100%" stop-color="#FFD8C4"></stop>
        </linearGradient>
        <linearGradient id="linearGradient-9" y2="100%" x2="50%" y1="1.06534091%" x1="50%">
            <stop offset="0%" stop-color="#FF307F"></stop>
            <stop offset="100%" stop-color="#FFE5E5"></stop>
        </linearGradient>
        <linearGradient id="linearGradient-10" y2="100%" x2="50%" y1="0%" x1="50%">
            <stop offset="0%" stop-color="#FFE8DC"></stop>
            <stop offset="100%" stop-color="#75A337"></stop>
        </linearGradient>
        <linearGradient id="linearGradient-11" y2="100%" x2="50%" y1="0%" x1="50%">
            <stop offset="0%" stop-color="#A6CC67"></stop>
            <stop offset="100%" stop-color="#447E18"></stop>
        </linearGradient>
        <linearGradient id="linearGradient-12" y2="100%" x2="50%" y1="0%" x1="50%">
            <stop offset="0%" stop-color="#7DA83D"></stop>
            <stop offset="100%" stop-color="#55881A"></stop>
        </linearGradient>
        <linearGradient id="linearGradient-13" y2="100%" x2="50%" y1="0%" x1="50%">
            <stop offset="0%" stop-color="#D0DC9A"></stop>
            <stop offset="100%" stop-color="#75A337"></stop>
        </linearGradient>
        <linearGradient id="linearGradient-14" y2="93.8790577%" x2="65.6832329%" y1="4.24819894%" x1="39.5463486%">
            <stop offset="0%" stop-opacity="0" stop-color="#00A300"></stop>
            <stop offset="100%" stop-color="#2D642D"></stop>
        </linearGradient>
        <linearGradient id="linearGradient-15" y2="23.9740211%" x2="96.4508637%" y1="73.5457455%" x1="3.5491363%">
            <stop offset="0%" stop-color="#FCD698"></stop>
            <stop offset="71.0199956%" stop-color="#F89B70"></stop>
            <stop offset="100%" stop-color="#F7AD5F"></stop>
        </linearGradient>
    </defs>
    <g fill-rule="evenodd" fill="none" stroke-width="1" stroke="none" id="Page-1">
        <g transform="translate(-105.000000, -137.000000)" id="桌面端-HD">
            <g transform="translate(105.000000, 137.000000)" id="1">
                <ellipse ry="28.5" rx="80" cy="233.5" cx="163" fill="url(#linearGradient-1)" id="椭圆形"></ellipse>
                <ellipse ry="27.5" rx="73" cy="245.5" cx="163" fill="url(#linearGradient-2)" id="椭圆形备份"></ellipse>
                <g id="编组">
                    <path transform="translate(166.166815, 164.413224) rotate(-4.000000) translate(-166.166815, -164.413224)" fill="url(#linearGradient-3)" id="椭圆形" d="M166.166815,196.413224 C173.898802,196.413224 180.166815,166.723518 180.166815,154.516317 C180.166815,142.309116 173.898802,132.413224 166.166815,132.413224 C158.434829,132.413224 152.166815,142.309116 152.166815,154.516317 C152.166815,166.723518 158.434829,196.413224 166.166815,196.413224 Z"></path>
                    <path transform="translate(259.166815, 94.413224) rotate(24.000000) translate(-259.166815, -94.413224)" fill="#D3E4BC" id="椭圆形备份-6" d="M259.166815,126.413224 C266.898802,126.413224 273.166815,96.7235178 273.166815,84.5163167 C273.166815,72.3091156 266.898802,62.4132239 259.166815,62.4132239 C251.434829,62.4132239 245.166815,72.3091156 245.166815,84.5163167 C245.166815,96.7235178 251.434829,126.413224 259.166815,126.413224 Z"></path>
                    <path transform="translate(56.102477, 178.000007) scale(-1, 1) rotate(16.000000) translate(-56.102477, -178.000007)" fill="url(#linearGradient-4)" id="椭圆形备份-7" d="M56.2049544,209.000013 C72.7734969,209.000013 86.2049544,195.120827 86.2049544,178 C86.2049544,160.879173 72.7734969,147 56.2049544,147 C39.636412,147 26.2049544,160.879173 26.2049544,178 C26.2049544,195.120827 21.5858138,208.066406 56.2049544,209.000013 Z"></path>
                    <path transform="translate(105.711932, 110.318974) scale(-1, 1) rotate(-16.000000) translate(-105.711932, -110.318974)" fill="url(#linearGradient-5)" id="椭圆形备份-5" d="M105.83789,152.818974 C126.202861,152.818974 142.711932,133.791062 142.711932,110.318974 C142.711932,86.8468679 126.202861,67.8189738 105.83789,67.8189738 C85.472919,67.8189738 68.9638482,86.8468679 68.9638482,110.318974 C68.9638482,133.791062 63.2863021,151.539029 105.83789,152.818974 Z"></path>
                    <path transform="translate(102.903734, 149.621805) scale(-1, 1) rotate(-13.000000) translate(-102.903734, -149.621805)" fill="url(#linearGradient-6)" id="椭圆形备份-3" d="M103.005862,180.621805 C119.518001,180.621805 132.903734,166.742622 132.903734,149.621805 C132.903734,132.500974 119.518001,118.621805 103.005862,118.621805 C86.4937237,118.621805 73.1079906,132.500974 73.1079906,149.621805 C73.1079906,166.742622 68.5045748,179.688198 103.005862,180.621805 Z"></path>
                    <path transform="translate(206.000000, 70.500000) rotate(-6.000000) translate(-206.000000, -70.500000)" fill="#C1D7A4" id="椭圆形备份-4" d="M206,113 C226.434536,113 243,85.2207006 243,64.8622449 C243,44.5037892 226.434536,28 206,28 C185.565464,28 169,44.5037892 169,64.8622449 C169,85.2207006 185.565464,113 206,113 Z"></path>
                    <path fill="url(#linearGradient-7)" id="形状结合" d="M206.126605,3.80032484 C208.188819,1.1013301 210.666611,-0.348555036 213.10251,0.0717516263 C218.109634,0.93571532 221.043645,9.3746511 219.655806,18.9206422 C218.267968,28.4666334 213.083826,35.5048072 208.076702,34.6408435 C207.336382,34.5131036 206.641381,34.2197701 205.998968,33.7817484 C205.357899,34.2200737 204.663235,34.5131697 203.923298,34.6408435 C198.916174,35.5048072 193.732032,28.4666334 192.344194,18.9206422 C190.956355,9.3746511 193.890366,0.93571532 198.89749,0.0717516263 C201.383543,-0.35720901 203.913233,1.16182825 206.000244,3.96862227 Z"></path>
                    <path transform="translate(19.000000, 174.356298) rotate(-83.000000) translate(-19.000000, -174.356298)" fill="url(#linearGradient-7)" id="形状结合备份-3" d="M19.1266048,160.800325 C21.1888187,158.10133 23.6666115,156.651445 26.1025097,157.071752 C31.1096339,157.935715 34.0436447,166.374651 32.6558062,175.920642 C31.2679677,185.466633 26.0838262,192.504807 21.076702,191.640844 C20.3363818,191.513104 19.6413811,191.21977 18.9989683,190.781748 C18.3578994,191.220074 17.663235,191.51317 16.923298,191.640844 C11.9161738,192.504807 6.73203227,185.466633 5.34419379,175.920642 C3.9563553,166.374651 6.89036608,157.935715 11.8974903,157.071752 C14.3835429,156.642791 16.913233,158.161828 19.0002436,160.968622 Z"></path>
                    <path transform="translate(112.000000, 55.075504) rotate(7.000000) translate(-112.000000, -55.075504)" fill="url(#linearGradient-8)" id="形状结合备份-2" d="M112.034194,38.772798 C114.561774,35.3941206 117.619379,33.5686069 120.624476,34.087127 C126.704555,35.1362257 130.267283,45.3835049 128.58205,56.9750656 C126.896818,68.5666262 120.601789,77.1129802 114.52171,76.0638815 C113.623264,75.9088575 112.779787,75.5529858 112.000087,75.021608 C111.220931,75.5526831 110.377118,75.9087916 109.47829,76.0638815 C103.398211,77.1129802 97.103182,68.5666262 95.4179496,56.9750656 C93.7327171,45.3835049 97.2954445,35.1362257 103.375524,34.087127 C106.394364,33.5662355 109.466194,35.410867 112.000451,38.8192507 Z"></path>
                    <path transform="translate(277.099355, 58.000000) rotate(32.000000) translate(-277.099355, -58.000000)" fill="url(#linearGradient-9)" id="形状结合备份" d="M277.226786,46.2608666 C279.005438,43.9433934 281.139513,42.699988 283.237625,43.0620106 C287.56498,43.8086823 290.100668,51.1019449 288.901243,59.3519686 C287.701818,67.6019924 283.221478,73.6846611 278.894123,72.9379894 C278.254544,72.8276321 277.654103,72.5742674 277.099075,72.1959427 C276.544888,72.5741482 275.944316,72.8276061 275.304587,72.9379894 C270.977231,73.6846611 266.496891,67.6019924 265.297466,59.3519686 C264.098041,51.1019449 266.633729,43.8086823 270.961084,43.0620106 C273.109631,42.6912855 275.295892,44.0041002 277.09957,46.4298467 Z"></path>
                    <path fill="url(#linearGradient-10)" id="椭圆形" d="M211.5,181 C234.972102,181 254,148.972102 254,125.5 C254,102.027898 234.972102,83 211.5,83 C188.027898,83 169,102.027898 169,125.5 C169,148.972102 188.027898,181 211.5,181 Z"></path>
                    <path transform="translate(116.500000, 181.500013) scale(-1, 1) rotate(13.000000) translate(-116.500000, -181.500013)" fill="url(#linearGradient-11)" id="椭圆形备份-2" d="M116.620852,218.000013 C136.160216,218.000013 152,201.658395 152,181.500013 C152,161.341616 136.160216,145.000013 116.620852,145.000013 C97.0814879,145.000013 81.2417038,161.341616 81.2417038,181.500013 C81.2417038,201.658395 75.7943284,216.900767 116.620852,218.000013 Z"></path>
                    <path fill="url(#linearGradient-12)" id="椭圆形" d="M164.930261,248 C213.836407,248 197.974954,235.240115 197.974954,219.5 C197.974954,203.759885 183.180341,191 164.930261,191 C146.680181,191 131.885568,203.759885 131.885568,219.5 C131.885568,235.240115 116.024115,248 164.930261,248 Z"></path>
                    <path fill="url(#linearGradient-13)" id="椭圆形" d="M202,218.000013 C218.568542,218.000013 232,204.120827 232,187 C232,169.879173 218.568542,156 202,156 C185.431458,156 172,169.879173 172,187 C172,204.120827 167.380859,217.066406 202,218.000013 Z"></path>
                    <path fill="url(#linearGradient-14)" id="形状结合" d="M150.933041,199.704367 C151.890542,201.501297 153.302891,205.086955 155.170087,210.461341 C157.082381,205.204733 158.523882,201.696942 159.495849,199.937883 C161.228431,196.802348 161.966415,197.371051 160.971836,201.075299 C160.433608,203.079894 159.134294,206.461878 157.073895,211.221253 C156.880017,211.669097 156.486908,212.562906 155.894567,213.902679 C155.870874,213.956311 155.840801,214.00689 155.805011,214.053333 C155.721339,214.16191 155.613167,214.240484 155.494257,214.28727 C155.215564,214.506047 154.825024,214.559923 154.485094,214.393491 C149.738091,212.069665 146.601463,210.282054 145.075211,209.030658 C142.625462,207.022075 142.941547,205.934446 145.70738,206.8554 C147.160771,207.339343 149.628833,208.655229 153.111566,210.803059 C151.170546,206.121601 149.947356,202.789175 149.443012,200.805793 C148.495085,197.077978 149.240097,196.527267 150.933041,199.704367 Z"></path>
                    <path transform="translate(213.419319, 159.059931) rotate(41.000000) translate(-213.419319, -159.059931)" fill="url(#linearGradient-14)" id="形状结合备份-12" d="M211.933041,152.704367 C212.890542,154.501297 214.302891,158.086955 216.170087,163.461341 C218.082381,158.204733 219.523882,154.696942 220.495849,152.937883 C222.228431,149.802348 222.966415,150.371051 221.971836,154.075299 C221.433608,156.079894 220.134294,159.461878 218.073895,164.221253 C217.880017,164.669097 217.486908,165.562906 216.894567,166.902679 C216.870874,166.956311 216.840801,167.00689 216.805011,167.053333 C216.721339,167.16191 216.613167,167.240484 216.494257,167.28727 C216.215564,167.506047 215.825024,167.559923 215.485094,167.393491 C210.738091,165.069665 207.601463,163.282054 206.075211,162.030658 C203.625462,160.022075 203.941547,158.934446 206.70738,159.8554 C208.160771,160.339343 210.628833,161.655229 214.111566,163.803059 C212.170546,159.121601 210.947356,155.789175 210.443012,153.805793 C209.495085,150.077978 210.240097,149.527267 211.933041,152.704367 Z"></path>
                    <path transform="translate(52.419319, 196.059931) rotate(-117.000000) translate(-52.419319, -196.059931)" fill="url(#linearGradient-14)" id="形状结合备份-8" d="M50.9330408,189.704367 C51.8905419,191.501297 53.3028908,195.086955 55.1700874,200.461341 C57.082381,195.204733 58.5238822,191.696942 59.4958494,189.937883 C61.2284305,186.802348 61.9664154,187.371051 60.9718355,191.075299 C60.4336077,193.079894 59.1342942,196.461878 57.073895,201.221253 C56.880017,201.669097 56.4869078,202.562906 55.8945673,203.902679 C55.8708738,203.956311 55.8408006,204.00689 55.8050111,204.053333 C55.7213395,204.16191 55.6131668,204.240484 55.4942573,204.28727 C55.2155641,204.506047 54.8250238,204.559923 54.4850938,204.393491 C49.738091,202.069665 46.6014634,200.282054 45.0752108,199.030658 C42.625462,197.022075 42.9415468,195.934446 45.7073804,196.8554 C47.1607709,197.339343 49.6288327,198.655229 53.1115657,200.803059 C51.1705463,196.121601 49.947356,192.789175 49.4430122,190.805793 C48.4950855,187.077978 49.2400973,186.527267 50.9330408,189.704367 Z"></path>
                    <path transform="translate(122.419319, 154.059931) rotate(45.000000) translate(-122.419319, -154.059931)" fill="url(#linearGradient-14)" id="形状结合备份-4" d="M120.933041,147.704367 C121.890542,149.501297 123.302891,153.086955 125.170087,158.461341 C127.082381,153.204733 128.523882,149.696942 129.495849,147.937883 C131.228431,144.802348 131.966415,145.371051 130.971836,149.075299 C130.433608,151.079894 129.134294,154.461878 127.073895,159.221253 C126.880017,159.669097 126.486908,160.562906 125.894567,161.902679 C125.870874,161.956311 125.840801,162.00689 125.805011,162.053333 C125.721339,162.16191 125.613167,162.240484 125.494257,162.28727 C125.215564,162.506047 124.825024,162.559923 124.485094,162.393491 C119.738091,160.069665 116.601463,158.282054 115.075211,157.030658 C112.625462,155.022075 112.941547,153.934446 115.70738,154.8554 C117.160771,155.339343 119.628833,156.655229 123.111566,158.803059 C121.170546,154.121601 119.947356,150.789175 119.443012,148.805793 C118.495085,145.077978 119.240097,144.527267 120.933041,147.704367 Z"></path>
                    <path transform="translate(153.419319, 132.059931) rotate(-2.000000) translate(-153.419319, -132.059931)" fill="url(#linearGradient-14)" id="形状结合备份-11" d="M151.933041,125.704367 C152.890542,127.501297 154.302891,131.086955 156.170087,136.461341 C158.082381,131.204733 159.523882,127.696942 160.495849,125.937883 C162.228431,122.802348 162.966415,123.371051 161.971836,127.075299 C161.433608,129.079894 160.134294,132.461878 158.073895,137.221253 C157.880017,137.669097 157.486908,138.562906 156.894567,139.902679 C156.870874,139.956311 156.840801,140.00689 156.805011,140.053333 C156.721339,140.16191 156.613167,140.240484 156.494257,140.28727 C156.215564,140.506047 155.825024,140.559923 155.485094,140.393491 C150.738091,138.069665 147.601463,136.282054 146.075211,135.030658 C143.625462,133.022075 143.941547,131.934446 146.70738,132.8554 C148.160771,133.339343 150.628833,134.655229 154.111566,136.803059 C152.170546,132.121601 150.947356,128.789175 150.443012,126.805793 C149.495085,123.077978 150.240097,122.527267 151.933041,125.704367 Z"></path>
                    <path transform="translate(234.419319, 112.059931) rotate(49.000000) translate(-234.419319, -112.059931)" fill="url(#linearGradient-14)" id="形状结合备份-16" d="M232.933041,105.704367 C233.890542,107.501297 235.302891,111.086955 237.170087,116.461341 C239.082381,111.204733 240.523882,107.696942 241.495849,105.937883 C243.228431,102.802348 243.966415,103.371051 242.971836,107.075299 C242.433608,109.079894 241.134294,112.461878 239.073895,117.221253 C238.880017,117.669097 238.486908,118.562906 237.894567,119.902679 C237.870874,119.956311 237.840801,120.00689 237.805011,120.053333 C237.721339,120.16191 237.613167,120.240484 237.494257,120.28727 C237.215564,120.506047 236.825024,120.559923 236.485094,120.393491 C231.738091,118.069665 228.601463,116.282054 227.075211,115.030658 C224.625462,113.022075 224.941547,111.934446 227.70738,112.8554 C229.160771,113.339343 231.628833,114.655229 235.111566,116.803059 C233.170546,112.121601 231.947356,108.789175 231.443012,106.805793 C230.495085,103.077978 231.240097,102.527267 232.933041,105.704367 Z"></path>
                    <path transform="translate(278.419319, 92.059931) rotate(99.000000) translate(-278.419319, -92.059931)" fill="url(#linearGradient-14)" id="形状结合备份-18" d="M276.933041,85.7043674 C277.890542,87.5012973 279.302891,91.0869552 281.170087,96.461341 C283.082381,91.2047325 284.523882,87.6969417 285.495849,85.9378827 C287.228431,82.8023477 287.966415,83.3710515 286.971836,87.0752994 C286.433608,89.0798935 285.134294,92.461878 283.073895,97.2212527 C282.880017,97.6690969 282.486908,98.5629056 281.894567,99.9026788 C281.870874,99.9563111 281.840801,100.00689 281.805011,100.053333 C281.721339,100.16191 281.613167,100.240484 281.494257,100.28727 C281.215564,100.506047 280.825024,100.559923 280.485094,100.393491 C275.738091,98.0696646 272.601463,96.2820537 271.075211,95.0306579 C268.625462,93.0220748 268.941547,91.9344458 271.70738,92.8554001 C273.160771,93.3393432 275.628833,94.6552294 279.111566,96.8030587 C277.170546,92.1216007 275.947356,88.7891745 275.443012,86.8057931 C274.495085,83.0779781 275.240097,82.5272665 276.933041,85.7043674 Z"></path>
                    <path transform="translate(253.419319, 152.059931) rotate(127.000000) translate(-253.419319, -152.059931)" fill="url(#linearGradient-14)" id="形状结合备份-19" d="M251.933041,145.704367 C252.890542,147.501297 254.302891,151.086955 256.170087,156.461341 C258.082381,151.204733 259.523882,147.696942 260.495849,145.937883 C262.228431,142.802348 262.966415,143.371051 261.971836,147.075299 C261.433608,149.079894 260.134294,152.461878 258.073895,157.221253 C257.880017,157.669097 257.486908,158.562906 256.894567,159.902679 C256.870874,159.956311 256.840801,160.00689 256.805011,160.053333 C256.721339,160.16191 256.613167,160.240484 256.494257,160.28727 C256.215564,160.506047 255.825024,160.559923 255.485094,160.393491 C250.738091,158.069665 247.601463,156.282054 246.075211,155.030658 C243.625462,153.022075 243.941547,151.934446 246.70738,152.8554 C248.160771,153.339343 250.628833,154.655229 254.111566,156.803059 C252.170546,152.121601 250.947356,148.789175 250.443012,146.805793 C249.495085,143.077978 250.240097,142.527267 251.933041,145.704367 Z"></path>
                    <path transform="translate(193.419319, 182.059931) rotate(14.000000) translate(-193.419319, -182.059931)" fill="url(#linearGradient-14)" id="形状结合备份-13" d="M191.933041,175.704367 C192.890542,177.501297 194.302891,181.086955 196.170087,186.461341 C198.082381,181.204733 199.523882,177.696942 200.495849,175.937883 C202.228431,172.802348 202.966415,173.371051 201.971836,177.075299 C201.433608,179.079894 200.134294,182.461878 198.073895,187.221253 C197.880017,187.669097 197.486908,188.562906 196.894567,189.902679 C196.870874,189.956311 196.840801,190.00689 196.805011,190.053333 C196.721339,190.16191 196.613167,190.240484 196.494257,190.28727 C196.215564,190.506047 195.825024,190.559923 195.485094,190.393491 C190.738091,188.069665 187.601463,186.282054 186.075211,185.030658 C183.625462,183.022075 183.941547,181.934446 186.70738,182.8554 C188.160771,183.339343 190.628833,184.655229 194.111566,186.803059 C192.170546,182.121601 190.947356,178.789175 190.443012,176.805793 C189.495085,173.077978 190.240097,172.527267 191.933041,175.704367 Z"></path>
                    <path transform="translate(222.419319, 79.059931) rotate(41.000000) translate(-222.419319, -79.059931)" fill="url(#linearGradient-14)" id="形状结合备份-15" d="M220.933041,72.7043674 C221.890542,74.5012973 223.302891,78.0869552 225.170087,83.461341 C227.082381,78.2047325 228.523882,74.6969417 229.495849,72.9378827 C231.228431,69.8023477 231.966415,70.3710515 230.971836,74.0752994 C230.433608,76.0798935 229.134294,79.461878 227.073895,84.2212527 C226.880017,84.6690969 226.486908,85.5629056 225.894567,86.9026788 C225.870874,86.9563111 225.840801,87.0068901 225.805011,87.0533328 C225.721339,87.1619102 225.613167,87.2404837 225.494257,87.2872704 C225.215564,87.5060469 224.825024,87.5599225 224.485094,87.3934906 C219.738091,85.0696646 216.601463,83.2820537 215.075211,82.0306579 C212.625462,80.0220748 212.941547,78.9344458 215.70738,79.8554001 C217.160771,80.3393432 219.628833,81.6552294 223.111566,83.8030587 C221.170546,79.1216007 219.947356,75.7891745 219.443012,73.8057931 C218.495085,70.0779781 219.240097,69.5272665 220.933041,72.7043674 Z"></path>
                    <path transform="translate(183.419319, 122.059931) rotate(14.000000) translate(-183.419319, -122.059931)" fill="url(#linearGradient-14)" id="形状结合备份-14" d="M181.933041,115.704367 C182.890542,117.501297 184.302891,121.086955 186.170087,126.461341 C188.082381,121.204733 189.523882,117.696942 190.495849,115.937883 C192.228431,112.802348 192.966415,113.371051 191.971836,117.075299 C191.433608,119.079894 190.134294,122.461878 188.073895,127.221253 C187.880017,127.669097 187.486908,128.562906 186.894567,129.902679 C186.870874,129.956311 186.840801,130.00689 186.805011,130.053333 C186.721339,130.16191 186.613167,130.240484 186.494257,130.28727 C186.215564,130.506047 185.825024,130.559923 185.485094,130.393491 C180.738091,128.069665 177.601463,126.282054 176.075211,125.030658 C173.625462,123.022075 173.941547,121.934446 176.70738,122.8554 C178.160771,123.339343 180.628833,124.655229 184.111566,126.803059 C182.170546,122.121601 180.947356,118.789175 180.443012,116.805793 C179.495085,113.077978 180.240097,112.527267 181.933041,115.704367 Z"></path>
                    <path transform="translate(178.419319, 36.059931) rotate(-10.000000) translate(-178.419319, -36.059931)" fill="url(#linearGradient-14)" id="形状结合备份-17" d="M176.933041,29.7043674 C177.890542,31.5012973 179.302891,35.0869552 181.170087,40.461341 C183.082381,35.2047325 184.523882,31.6969417 185.495849,29.9378827 C187.228431,26.8023477 187.966415,27.3710515 186.971836,31.0752994 C186.433608,33.0798935 185.134294,36.461878 183.073895,41.2212527 C182.880017,41.6690969 182.486908,42.5629056 181.894567,43.9026788 C181.870874,43.9563111 181.840801,44.0068901 181.805011,44.0533328 C181.721339,44.1619102 181.613167,44.2404837 181.494257,44.2872704 C181.215564,44.5060469 180.825024,44.5599225 180.485094,44.3934906 C175.738091,42.0696646 172.601463,40.2820537 171.075211,39.0306579 C168.625462,37.0220748 168.941547,35.9344458 171.70738,36.8554001 C173.160771,37.3393432 175.628833,38.6552294 179.111566,40.8030587 C177.170546,36.1216007 175.947356,32.7891745 175.443012,30.8057931 C174.495085,27.0779781 175.240097,26.5272665 176.933041,29.7043674 Z"></path>
                    <path transform="translate(85.419319, 76.059931) rotate(-13.000000) translate(-85.419319, -76.059931)" fill="url(#linearGradient-14)" id="形状结合备份-10" d="M83.9330408,69.7043674 C84.8905419,71.5012973 86.3028908,75.0869552 88.1700874,80.461341 C90.082381,75.2047325 91.5238822,71.6969417 92.4958494,69.9378827 C94.2284305,66.8023477 94.9664154,67.3710515 93.9718355,71.0752994 C93.4336077,73.0798935 92.1342942,76.461878 90.073895,81.2212527 C89.880017,81.6690969 89.4869078,82.5629056 88.8945673,83.9026788 C88.8708738,83.9563111 88.8408006,84.0068901 88.8050111,84.0533328 C88.7213395,84.1619102 88.6131668,84.2404837 88.4942573,84.2872704 C88.2155641,84.5060469 87.8250238,84.5599225 87.4850938,84.3934906 C82.738091,82.0696646 79.6014634,80.2820537 78.0752108,79.0306579 C75.625462,77.0220748 75.9415468,75.9344458 78.7073804,76.8554001 C80.1607709,77.3393432 82.6288327,78.6552294 86.1115657,80.8030587 C84.1705463,76.1216007 82.947356,72.7891745 82.4430122,70.8057931 C81.4950855,67.0779781 82.2400973,66.5272665 83.9330408,69.7043674 Z"></path>
                    <path transform="translate(92.419319, 117.059931) rotate(10.000000) translate(-92.419319, -117.059931)" fill="url(#linearGradient-14)" id="形状结合备份-6" d="M90.9330408,110.704367 C91.8905419,112.501297 93.3028908,116.086955 95.1700874,121.461341 C97.082381,116.204733 98.5238822,112.696942 99.4958494,110.937883 C101.228431,107.802348 101.966415,108.371051 100.971836,112.075299 C100.433608,114.079894 99.1342942,117.461878 97.073895,122.221253 C96.880017,122.669097 96.4869078,123.562906 95.8945673,124.902679 C95.8708738,124.956311 95.8408006,125.00689 95.8050111,125.053333 C95.7213395,125.16191 95.6131668,125.240484 95.4942573,125.28727 C95.2155641,125.506047 94.8250238,125.559923 94.4850938,125.393491 C89.738091,123.069665 86.6014634,121.282054 85.0752108,120.030658 C82.625462,118.022075 82.9415468,116.934446 85.7073804,117.8554 C87.1607709,118.339343 89.6288327,119.655229 93.1115657,121.803059 C91.1705463,117.121601 89.947356,113.789175 89.4430122,111.805793 C88.4950855,108.077978 89.2400973,107.527267 90.9330408,110.704367 Z"></path>
                    <path transform="translate(136.419319, 79.059931) rotate(50.000000) translate(-136.419319, -79.059931)" fill="url(#linearGradient-14)" id="形状结合备份-9" d="M134.933041,72.7043674 C135.890542,74.5012973 137.302891,78.0869552 139.170087,83.461341 C141.082381,78.2047325 142.523882,74.6969417 143.495849,72.9378827 C145.228431,69.8023477 145.966415,70.3710515 144.971836,74.0752994 C144.433608,76.0798935 143.134294,79.461878 141.073895,84.2212527 C140.880017,84.6690969 140.486908,85.5629056 139.894567,86.9026788 C139.870874,86.9563111 139.840801,87.0068901 139.805011,87.0533328 C139.721339,87.1619102 139.613167,87.2404837 139.494257,87.2872704 C139.215564,87.5060469 138.825024,87.5599225 138.485094,87.3934906 C133.738091,85.0696646 130.601463,83.2820537 129.075211,82.0306579 C126.625462,80.0220748 126.941547,78.9344458 129.70738,79.8554001 C131.160771,80.3393432 133.628833,81.6552294 137.111566,83.8030587 C135.170546,79.1216007 133.947356,75.7891745 133.443012,73.8057931 C132.495085,70.0779781 133.240097,69.5272665 134.933041,72.7043674 Z"></path>
                    <path transform="translate(98.419319, 186.059931) rotate(-16.000000) translate(-98.419319, -186.059931)" fill="url(#linearGradient-14)" id="形状结合备份-5" d="M96.9330408,179.704367 C97.8905419,181.501297 99.3028908,185.086955 101.170087,190.461341 C103.082381,185.204733 104.523882,181.696942 105.495849,179.937883 C107.228431,176.802348 107.966415,177.371051 106.971836,181.075299 C106.433608,183.079894 105.134294,186.461878 103.073895,191.221253 C102.880017,191.669097 102.486908,192.562906 101.894567,193.902679 C101.870874,193.956311 101.840801,194.00689 101.805011,194.053333 C101.721339,194.16191 101.613167,194.240484 101.494257,194.28727 C101.215564,194.506047 100.825024,194.559923 100.485094,194.393491 C95.738091,192.069665 92.6014634,190.282054 91.0752108,189.030658 C88.625462,187.022075 88.9415468,185.934446 91.7073804,186.8554 C93.1607709,187.339343 95.6288327,188.655229 99.1115657,190.803059 C97.1705463,186.121601 95.947356,182.789175 95.4430122,180.805793 C94.4950855,177.077978 95.2400973,176.527267 96.9330408,179.704367 Z"></path>
                    <path transform="translate(40.419319, 150.059931) rotate(-8.000000) translate(-40.419319, -150.059931)" fill="url(#linearGradient-14)" id="形状结合备份-7" d="M38.9330408,143.704367 C39.8905419,145.501297 41.3028908,149.086955 43.1700874,154.461341 C45.082381,149.204733 46.5238822,145.696942 47.4958494,143.937883 C49.2284305,140.802348 49.9664154,141.371051 48.9718355,145.075299 C48.4336077,147.079894 47.1342942,150.461878 45.073895,155.221253 C44.880017,155.669097 44.4869078,156.562906 43.8945673,157.902679 C43.8708738,157.956311 43.8408006,158.00689 43.8050111,158.053333 C43.7213395,158.16191 43.6131668,158.240484 43.4942573,158.28727 C43.2155641,158.506047 42.8250238,158.559923 42.4850938,158.393491 C37.738091,156.069665 34.6014634,154.282054 33.0752108,153.030658 C30.625462,151.022075 30.9415468,149.934446 33.7073804,150.8554 C35.1607709,151.339343 37.6288327,152.655229 41.1115657,154.803059 C39.1705463,150.121601 37.947356,146.789175 37.4430122,144.805793 C36.4950855,141.077978 37.2400973,140.527267 38.9330408,143.704367 Z"></path>
                </g>
                <path fill="url(#linearGradient-15)" id="路径" d="M243,237 L243,375 L242.987918,375.000382 C242.238418,390.509654 206.713632,403 163,403 C119.286368,403 83.7615818,390.509654 83.0120822,375.000382 L83,375 L83,237 L83.5973056,237 C88.4404198,251.089052 122.143524,262 163,262 C203.856476,262 237.55958,251.089052 242.402694,237 L243,237 Z"></path>
            </g>
        </g>
    </g>
</svg>